<svg
    width="261"
    height="27"
    viewBox="0 0 261 27"
    fill="none"
    xmlns="http://www.w3.org/2000/svg"
>
    <path
        d="M7.625 26.293C6.25781 26.293 5.01953 25.9414 3.91016 25.2383C2.80859 24.5273 1.93359 23.4844 1.28516 22.1094C0.644531 20.7266 0.324219 19.0312 0.324219 17.0234C0.324219 14.9609 0.65625 13.2461 1.32031 11.8789C1.98438 10.5039 2.86719 9.47656 3.96875 8.79688C5.07813 8.10938 6.29297 7.76563 7.61328 7.76563C8.62109 7.76563 9.46094 7.9375 10.1328 8.28125C10.8125 8.61719 11.3594 9.03906 11.7734 9.54687C12.1953 10.0469 12.5156 10.5391 12.7344 11.0234H12.8867V2H17.8672V26H12.9453V23.1172H12.7344C12.5 23.6172 12.168 24.1133 11.7383 24.6055C11.3164 25.0898 10.7656 25.4922 10.0859 25.8125C9.41406 26.1328 8.59375 26.293 7.625 26.293ZM9.20703 22.3203C10.0117 22.3203 10.6914 22.1016 11.2461 21.6641C11.8086 21.2187 12.2383 20.5977 12.5352 19.8008C12.8398 19.0039 12.9922 18.0703 12.9922 17C12.9922 15.9297 12.8438 15 12.5469 14.2109C12.25 13.4219 11.8203 12.8125 11.2578 12.3828C10.6953 11.9531 10.0117 11.7383 9.20703 11.7383C8.38672 11.7383 7.69531 11.9609 7.13281 12.4062C6.57031 12.8516 6.14453 13.4687 5.85547 14.2578C5.56641 15.0469 5.42188 15.9609 5.42188 17C5.42188 18.0469 5.56641 18.9727 5.85547 19.7773C6.15234 20.5742 6.57813 21.1992 7.13281 21.6523C7.69531 22.0977 8.38672 22.3203 9.20703 22.3203ZM27.9295 26.3398C26.7811 26.3398 25.7576 26.1406 24.8592 25.7422C23.9607 25.3359 23.2498 24.7383 22.7264 23.9492C22.2107 23.1523 21.9529 22.1602 21.9529 20.9727C21.9529 19.9727 22.1365 19.1328 22.5037 18.4531C22.8709 17.7734 23.3709 17.2266 24.0037 16.8125C24.6365 16.3984 25.3553 16.0859 26.16 15.875C26.9725 15.6641 27.824 15.5156 28.7146 15.4297C29.7615 15.3203 30.6053 15.2187 31.2459 15.125C31.8865 15.0234 32.3514 14.875 32.6404 14.6797C32.9295 14.4844 33.074 14.1953 33.074 13.8125V13.7422C33.074 13 32.8396 12.4258 32.3709 12.0195C31.91 11.6133 31.2537 11.4102 30.4021 11.4102C29.5037 11.4102 28.7889 11.6094 28.2576 12.0078C27.7264 12.3984 27.3748 12.8906 27.2029 13.4844L22.5857 13.1094C22.8201 12.0156 23.2811 11.0703 23.9686 10.2734C24.6561 9.46875 25.5428 8.85156 26.6287 8.42187C27.7225 7.98437 28.9881 7.76563 30.4256 7.76563C31.4256 7.76563 32.3826 7.88281 33.2967 8.11719C34.2186 8.35156 35.035 8.71484 35.7459 9.20703C36.4646 9.69922 37.0311 10.332 37.4451 11.1055C37.8592 11.8711 38.0662 12.7891 38.0662 13.8594V26H33.3318V23.5039H33.1912C32.9021 24.0664 32.5154 24.5625 32.0311 24.9922C31.5467 25.4141 30.9646 25.7461 30.285 25.9883C29.6053 26.2227 28.8201 26.3398 27.9295 26.3398ZM29.3592 22.8945C30.0936 22.8945 30.742 22.75 31.3045 22.4609C31.867 22.1641 32.3084 21.7656 32.6287 21.2656C32.949 20.7656 33.1092 20.1992 33.1092 19.5664V17.6563C32.9529 17.7578 32.7381 17.8516 32.4647 17.9375C32.199 18.0156 31.8982 18.0898 31.5623 18.1602C31.2264 18.2227 30.8904 18.2812 30.5545 18.3359C30.2186 18.3828 29.9139 18.4258 29.6404 18.4648C29.0545 18.5508 28.5428 18.6875 28.1053 18.875C27.6678 19.0625 27.3279 19.3164 27.0857 19.6367C26.8436 19.9492 26.7225 20.3398 26.7225 20.8086C26.7225 21.4883 26.9686 22.0078 27.4607 22.3672C27.9607 22.7187 28.5936 22.8945 29.3592 22.8945ZM47.7564 15.5938V26H42.7643V8H47.5221V11.1758H47.733C48.1314 10.1289 48.7994 9.30078 49.7369 8.69141C50.6744 8.07422 51.8111 7.76563 53.1471 7.76563C54.3971 7.76563 55.4869 8.03906 56.4166 8.58594C57.3463 9.13281 58.0689 9.91406 58.5846 10.9297C59.1002 11.9375 59.358 13.1406 59.358 14.5391V26H54.3658V15.4297C54.3736 14.3281 54.0924 13.4687 53.5221 12.8516C52.9518 12.2266 52.1666 11.9141 51.1666 11.9141C50.4947 11.9141 49.901 12.0586 49.3854 12.3477C48.8775 12.6367 48.4791 13.0586 48.19 13.6133C47.9088 14.1602 47.7643 14.8203 47.7564 15.5938ZM64.1176 26V8H69.1098V26H64.1176ZM66.6254 5.67969C65.8832 5.67969 65.2465 5.43359 64.7152 4.9414C64.1918 4.44141 63.9301 3.84375 63.9301 3.14844C63.9301 2.46094 64.1918 1.87109 64.7152 1.37891C65.2465 0.878905 65.8832 0.628905 66.6254 0.628905C67.3676 0.628905 68.0004 0.878905 68.5238 1.37891C69.0551 1.87109 69.3207 2.46094 69.3207 3.14844C69.3207 3.84375 69.0551 4.44141 68.5238 4.9414C68.0004 5.43359 67.3676 5.67969 66.6254 5.67969ZM78.926 2V26H73.9338V2H78.926ZM101.005 26.375C99.5594 26.375 98.2977 25.9766 97.2195 25.1797C96.1414 24.3828 95.3055 23.2852 94.7117 21.8867C94.1258 20.4805 93.8328 18.8672 93.8328 17.0469C93.8328 15.2422 94.1297 13.6406 94.7234 12.2422C95.325 10.8359 96.1648 9.73437 97.243 8.9375C98.3211 8.13281 99.5789 7.73047 101.016 7.73047C102.048 7.73047 102.942 7.92969 103.7 8.32812C104.466 8.71875 105.106 9.23828 105.622 9.88672C106.145 10.5352 106.544 11.2461 106.817 12.0195H106.958V2H108.376V26H106.993V22.0742H106.817C106.528 22.8477 106.126 23.5625 105.61 24.2187C105.095 24.8672 104.454 25.3906 103.688 25.7891C102.923 26.1797 102.028 26.375 101.005 26.375ZM101.134 25.0508C102.352 25.0508 103.395 24.7031 104.262 24.0078C105.137 23.3047 105.805 22.3516 106.266 21.1484C106.735 19.9375 106.97 18.5664 106.97 17.0352C106.97 15.5039 106.735 14.1406 106.266 12.9453C105.805 11.7422 105.137 10.7969 104.262 10.1094C103.395 9.41406 102.352 9.0664 101.134 9.0664C99.8992 9.0664 98.8406 9.41797 97.9578 10.1211C97.0828 10.8164 96.4109 11.7656 95.9422 12.9687C95.4812 14.1719 95.2508 15.5273 95.2508 17.0352C95.2508 18.543 95.4812 19.9023 95.9422 21.1133C96.4109 22.3242 97.0828 23.2852 97.9578 23.9961C98.8406 24.6992 99.8992 25.0508 101.134 25.0508ZM115.705 26V8H117.123V26H115.705ZM116.42 4.8125C116.107 4.8125 115.834 4.70312 115.599 4.48437C115.373 4.26562 115.259 4 115.259 3.6875C115.259 3.375 115.373 3.10937 115.599 2.89062C115.826 2.67187 116.099 2.5625 116.42 2.5625C116.732 2.5625 117.002 2.67187 117.228 2.89062C117.463 3.10937 117.58 3.375 117.58 3.6875C117.58 4 117.466 4.26562 117.24 4.48437C117.013 4.70312 116.74 4.8125 116.42 4.8125ZM128.705 26.3867C127.666 26.3867 126.713 26.1797 125.846 25.7656C124.987 25.3516 124.295 24.7461 123.772 23.9492C123.256 23.1523 122.998 22.1836 122.998 21.043C122.998 20.293 123.131 19.6328 123.397 19.0625C123.662 18.4922 124.073 18 124.627 17.5859C125.182 17.1719 125.893 16.832 126.76 16.5664C127.627 16.293 128.662 16.082 129.866 15.9336C130.78 15.8242 131.596 15.7187 132.315 15.6172C133.034 15.5078 133.596 15.3398 134.002 15.1133C134.416 14.8867 134.623 14.543 134.623 14.082V13.332C134.623 12.0195 134.209 10.9766 133.381 10.2031C132.553 9.42969 131.412 9.04297 129.959 9.04297C128.67 9.04297 127.584 9.32812 126.702 9.89844C125.827 10.4609 125.213 11.1875 124.862 12.0781L123.514 11.5742C123.858 10.7148 124.354 10 125.002 9.42969C125.659 8.85937 126.409 8.43359 127.252 8.15234C128.104 7.87109 128.995 7.73047 129.924 7.73047C130.729 7.73047 131.495 7.84375 132.221 8.07031C132.955 8.29687 133.608 8.64063 134.178 9.10156C134.756 9.5625 135.213 10.1523 135.549 10.8711C135.885 11.582 136.053 12.4336 136.053 13.4258V26H134.623V22.7539H134.518C134.205 23.4258 133.776 24.0391 133.229 24.5937C132.69 25.1406 132.037 25.5781 131.272 25.9062C130.514 26.2266 129.659 26.3867 128.705 26.3867ZM128.846 25.0625C129.971 25.0625 130.967 24.7891 131.834 24.2422C132.709 23.6875 133.393 22.9297 133.885 21.9687C134.377 21.0078 134.623 19.918 134.623 18.6992V16.0508C134.444 16.207 134.182 16.3477 133.838 16.4727C133.502 16.5898 133.12 16.6953 132.69 16.7891C132.268 16.875 131.823 16.9531 131.354 17.0234C130.893 17.0859 130.444 17.1445 130.006 17.1992C128.694 17.3555 127.623 17.5977 126.795 17.9258C125.975 18.2461 125.373 18.668 124.991 19.1914C124.616 19.7148 124.428 20.3477 124.428 21.0898C124.428 22.3164 124.85 23.2852 125.694 23.9961C126.537 24.707 127.588 25.0625 128.846 25.0625ZM149.622 26.375C148.091 26.375 146.743 25.9727 145.579 25.168C144.415 24.3555 143.505 23.2461 142.849 21.8398C142.2 20.4336 141.876 18.8398 141.876 17.0586C141.876 15.2773 142.204 13.6836 142.861 12.2773C143.517 10.8711 144.427 9.76172 145.591 8.94922C146.755 8.13672 148.095 7.73047 149.611 7.73047C150.751 7.73047 151.79 7.96484 152.728 8.43359C153.673 8.90234 154.454 9.55469 155.071 10.3906C155.696 11.2266 156.095 12.1953 156.267 13.2969H154.814C154.579 12.0781 153.993 11.0703 153.056 10.2734C152.126 9.46875 150.982 9.0664 149.622 9.0664C148.404 9.0664 147.318 9.41016 146.364 10.0977C145.411 10.7773 144.661 11.7187 144.114 12.9219C143.568 14.1172 143.294 15.4883 143.294 17.0352C143.294 18.5586 143.56 19.9258 144.091 21.1367C144.622 22.3398 145.364 23.293 146.318 23.9961C147.271 24.6992 148.372 25.0508 149.622 25.0508C150.505 25.0508 151.31 24.875 152.036 24.5234C152.771 24.1719 153.384 23.6719 153.876 23.0234C154.368 22.375 154.693 21.6172 154.849 20.75H156.302C156.13 21.8594 155.739 22.8359 155.13 23.6797C154.521 24.5234 153.743 25.1836 152.798 25.6602C151.853 26.1367 150.794 26.375 149.622 26.375ZM163.432 14.3281V26H162.002V2H163.432V10.8477H163.572C163.994 9.91016 164.666 9.16406 165.588 8.60938C166.518 8.04688 167.631 7.76563 168.928 7.76563C170.139 7.76563 171.205 8.02344 172.127 8.53906C173.049 9.04687 173.768 9.77734 174.283 10.7305C174.807 11.6758 175.068 12.8086 175.068 14.1289V26H173.65V14.1875C173.65 12.6484 173.193 11.4141 172.279 10.4844C171.365 9.55469 170.158 9.08984 168.658 9.08984C167.65 9.08984 166.752 9.30859 165.963 9.74609C165.174 10.1836 164.553 10.7969 164.1 11.5859C163.654 12.3672 163.432 13.2812 163.432 14.3281ZM188.828 26.375C187.203 26.375 185.789 25.9727 184.586 25.168C183.383 24.3633 182.453 23.2617 181.797 21.8633C181.14 20.4648 180.812 18.8711 180.812 17.082C180.812 15.2852 181.14 13.6836 181.797 12.2773C182.461 10.8711 183.371 9.76172 184.527 8.94922C185.683 8.13672 187.004 7.73047 188.488 7.73047C189.496 7.73047 190.449 7.93359 191.347 8.33984C192.254 8.73828 193.051 9.31641 193.738 10.0742C194.433 10.832 194.976 11.7461 195.367 12.8164C195.765 13.8867 195.965 15.0898 195.965 16.4258V17.3164H181.715V16.0156H194.535C194.535 14.7109 194.269 13.5352 193.738 12.4883C193.207 11.4414 192.484 10.6094 191.57 9.99219C190.656 9.375 189.629 9.0664 188.488 9.0664C187.293 9.0664 186.226 9.40234 185.289 10.0742C184.359 10.7383 183.621 11.6367 183.074 12.7695C182.535 13.9023 182.254 15.168 182.23 16.5664V17.1523C182.23 18.6523 182.492 20 183.015 21.1953C183.547 22.3828 184.304 23.3242 185.289 24.0195C186.273 24.707 187.453 25.0508 188.828 25.0508C189.812 25.0508 190.652 24.8867 191.347 24.5586C192.051 24.2227 192.625 23.8164 193.07 23.3398C193.515 22.8633 193.851 22.4023 194.078 21.957L195.379 22.4844C195.105 23.0859 194.679 23.6875 194.101 24.2891C193.531 24.8828 192.804 25.3789 191.922 25.7773C191.047 26.1758 190.015 26.375 188.828 26.375ZM203.141 14.3281V26H201.712V8H203.106V10.8477H203.247C203.669 9.91797 204.344 9.17187 205.274 8.60938C206.204 8.04688 207.309 7.76563 208.59 7.76563C209.801 7.76563 210.864 8.02344 211.778 8.53906C212.7 9.05469 213.419 9.78906 213.934 10.7422C214.458 11.6875 214.719 12.8164 214.719 14.1289V26H213.29V14.1875C213.29 12.6562 212.833 11.4258 211.919 10.4961C211.012 9.55859 209.813 9.08984 208.321 9.08984C207.321 9.08984 206.43 9.30859 205.649 9.74609C204.868 10.1836 204.254 10.7969 203.809 11.5859C203.364 12.3672 203.141 13.2812 203.141 14.3281ZM222.728 18.9687L222.704 16.918H223.079L232.079 8H233.943L225.681 16.2031L225.54 16.2617L222.728 18.9687ZM221.486 26V2H222.915V26H221.486ZM232.49 26L224.896 16.4023L225.927 15.4531L234.318 26H232.49ZM244.954 26.375C243.47 26.375 242.15 25.9766 240.993 25.1797C239.837 24.375 238.927 23.2695 238.263 21.8633C237.599 20.457 237.267 18.8555 237.267 17.0586C237.267 15.2539 237.599 13.6523 238.263 12.2539C238.927 10.8477 239.837 9.74219 240.993 8.9375C242.15 8.13281 243.47 7.73047 244.954 7.73047C246.439 7.73047 247.759 8.13281 248.915 8.9375C250.071 9.74219 250.982 10.8477 251.646 12.2539C252.31 13.6602 252.642 15.2617 252.642 17.0586C252.642 18.8555 252.31 20.457 251.646 21.8633C250.982 23.2695 250.071 24.375 248.915 25.1797C247.759 25.9766 246.439 26.375 244.954 26.375ZM244.954 25.0508C246.212 25.0508 247.31 24.6953 248.247 23.9844C249.193 23.2734 249.923 22.3125 250.439 21.1016C250.962 19.8906 251.224 18.543 251.224 17.0586C251.224 15.5742 250.962 14.2305 250.439 13.0273C249.915 11.8164 249.185 10.8555 248.247 10.1445C247.31 9.42578 246.212 9.0664 244.954 9.0664C243.696 9.0664 242.599 9.42578 241.661 10.1445C240.724 10.8555 239.993 11.8164 239.47 13.0273C238.946 14.2305 238.685 15.5742 238.685 17.0586C238.685 18.543 238.943 19.8906 239.458 21.1016C239.982 22.3125 240.712 23.2734 241.65 23.9844C242.595 24.6953 243.696 25.0508 244.954 25.0508Z"
        fill="white"
    />
    <path
        d="M259.728 26.1523C259.376 26.1523 259.075 26.0313 258.825 25.7891C258.583 25.5391 258.462 25.2383 258.462 24.8867C258.462 24.543 258.583 24.2461 258.825 23.9961C259.075 23.7461 259.376 23.6211 259.728 23.6211C260.071 23.6211 260.368 23.7461 260.618 23.9961C260.868 24.2461 260.993 24.543 260.993 24.8867C260.993 25.1211 260.935 25.3359 260.817 25.5312C260.708 25.7187 260.556 25.8711 260.36 25.9883C260.173 26.0977 259.962 26.1523 259.728 26.1523Z"
        fill="#FF0000"
    />
</svg>